<svg xmlns="http://www.w3.org/2000/svg" width="391" height="144" viewBox="0 0 391 144"><path d="M98.64,101.71 A40,40 0 1 1 98.64,50.29" fill="none" stroke="#14161B" stroke-width="10.8" stroke-linecap="round"/><circle cx="98.64" cy="50.29" r="11.02" fill="#14C3B0"/><g fill="#14161B"><path transform="translate(138.00,108.20) scale(0.09200,-0.09200)" d="M332 -14Q204 -14 128.0 58.5Q52 131 52 267V433Q52 569 128.0 641.5Q204 714 332 714Q460 714 529.5 644.0Q599 574 599 452V446H481V455Q481 521 444.5 563.5Q408 606 332 606Q258 606 215.5 560.5Q173 515 173 435V265Q173 186 215.5 140.0Q258 94 332 94Q408 94 444.5 136.5Q481 179 481 245V262H599V248Q599 126 529.5 56.0Q460 -14 332 -14Z"/>
<path transform="translate(196.05,108.20) scale(0.09200,-0.09200)" d="M262 -8Q205 -8 161.0 17.5Q117 43 93.0 89.5Q69 136 69 198V494H183V207Q183 147 212.5 118.0Q242 89 296 89Q357 89 392.5 129.0Q428 169 428 244V494H542V0H430V69H413Q400 42 365.5 17.0Q331 -8 262 -8Z"/>
<path transform="translate(251.53,108.20) scale(0.09200,-0.09200)" d="M73 0V494H186V437H203Q214 468 240.0 482.0Q266 496 302 496H362V394H300Q250 394 219.0 367.5Q188 341 188 286V0Z"/>
<path transform="translate(286.40,108.20) scale(0.09200,-0.09200)" d="M73 0V494H188V0ZM130 557Q99 557 76.5 577.5Q54 598 54 632Q54 666 76.5 686.5Q99 707 130 707Q163 707 184.5 686.5Q206 666 206 632Q206 598 184.5 577.5Q163 557 130 557Z"/>
<path transform="translate(309.30,108.20) scale(0.09200,-0.09200)" d="M299 -14Q225 -14 168.5 17.5Q112 49 80.5 106.5Q49 164 49 241V253Q49 331 80.0 388.0Q111 445 167.0 476.5Q223 508 296 508Q368 508 422.0 476.5Q476 445 506.0 388.0Q536 331 536 255V214H165Q167 156 206.0 121.0Q245 86 302 86Q358 86 385.0 110.5Q412 135 426 166L521 117Q507 90 480.5 59.5Q454 29 410.0 7.5Q366 -14 299 -14ZM166 301H419Q415 350 381.5 379.0Q348 408 295 408Q240 408 207.0 379.0Q174 350 166 301Z"/></g><circle cx="300.50" cy="58.06" r="6.44" fill="#14C3B0"/></svg>