<svg xmlns="http://www.w3.org/2000/svg" width="440" height="282" viewBox="0 0 440 282"><path d="M259.83,123.42 A52,52 0 1 1 259.83,56.58" fill="none" stroke="#14161B" stroke-width="14.040000000000001" stroke-linecap="round"/><circle cx="259.83" cy="56.58" r="14.32" fill="#14C3B0"/><g fill="#14161B"><path transform="translate(92.96,212.00) scale(0.10400,-0.10400)" d="M332 -14Q204 -14 128.0 58.5Q52 131 52 267V433Q52 569 128.0 641.5Q204 714 332 714Q460 714 529.5 644.0Q599 574 599 452V446H481V455Q481 521 444.5 563.5Q408 606 332 606Q258 606 215.5 560.5Q173 515 173 435V265Q173 186 215.5 140.0Q258 94 332 94Q408 94 444.5 136.5Q481 179 481 245V262H599V248Q599 126 529.5 56.0Q460 -14 332 -14Z"/>
<path transform="translate(158.59,212.00) scale(0.10400,-0.10400)" d="M262 -8Q205 -8 161.0 17.5Q117 43 93.0 89.5Q69 136 69 198V494H183V207Q183 147 212.5 118.0Q242 89 296 89Q357 89 392.5 129.0Q428 169 428 244V494H542V0H430V69H413Q400 42 365.5 17.0Q331 -8 262 -8Z"/>
<path transform="translate(221.30,212.00) scale(0.10400,-0.10400)" d="M73 0V494H186V437H203Q214 468 240.0 482.0Q266 496 302 496H362V394H300Q250 394 219.0 367.5Q188 341 188 286V0Z"/>
<path transform="translate(260.72,212.00) scale(0.10400,-0.10400)" d="M73 0V494H188V0ZM130 557Q99 557 76.5 577.5Q54 598 54 632Q54 666 76.5 686.5Q99 707 130 707Q163 707 184.5 686.5Q206 666 206 632Q206 598 184.5 577.5Q163 557 130 557Z"/>
<path transform="translate(286.61,212.00) scale(0.10400,-0.10400)" d="M299 -14Q225 -14 168.5 17.5Q112 49 80.5 106.5Q49 164 49 241V253Q49 331 80.0 388.0Q111 445 167.0 476.5Q223 508 296 508Q368 508 422.0 476.5Q476 445 506.0 388.0Q536 331 536 255V214H165Q167 156 206.0 121.0Q245 86 302 86Q358 86 385.0 110.5Q412 135 426 166L521 117Q507 90 480.5 59.5Q454 29 410.0 7.5Q366 -14 299 -14ZM166 301H419Q415 350 381.5 379.0Q348 408 295 408Q240 408 207.0 379.0Q174 350 166 301Z"/></g><circle cx="276.66" cy="155.32" r="7.28" fill="#14C3B0"/><g fill="#71757C"><path transform="translate(111.63,242.00) scale(0.01600,-0.01600)" d="M73 0V700H281L471 72H487V700H594V0H386L196 629H180V0Z"/>
<path transform="translate(122.50,242.00) scale(0.01600,-0.01600)" d="M307 -14Q233 -14 175.5 16.5Q118 47 85.0 104.0Q52 161 52 239V254Q52 332 85.0 388.5Q118 445 175.5 476.0Q233 507 307 507Q381 507 439.0 476.0Q497 445 530.0 388.5Q563 332 563 254V239Q563 161 530.0 104.0Q497 47 439.0 16.5Q381 -14 307 -14ZM307 78Q375 78 417.5 121.5Q460 165 460 242V251Q460 328 418.0 371.5Q376 415 307 415Q240 415 197.5 371.5Q155 328 155 251V242Q155 165 197.5 121.5Q240 78 307 78Z"/>
<path transform="translate(136.82,242.00) scale(0.01600,-0.01600)" d="M302 -14Q227 -14 171.0 17.5Q115 49 83.5 106.5Q52 164 52 240V252Q52 329 83.0 386.5Q114 444 169.5 475.5Q225 507 298 507Q369 507 422.5 475.5Q476 444 506.0 388.0Q536 332 536 257V218H157Q159 153 200.5 114.5Q242 76 304 76Q362 76 391.5 102.0Q421 128 437 162L522 118Q508 90 481.5 59.0Q455 28 412.0 7.0Q369 -14 302 -14ZM158 297H431Q427 353 391.0 384.5Q355 416 297 416Q239 416 202.5 384.5Q166 353 158 297Z"/>
<path transform="translate(146.37,242.00) scale(0.01600,-0.01600)" d="M34 0 222 249 38 493H159L288 316H304L433 493H555L370 249L558 0H435L304 181H288L157 0Z"/>
<path transform="translate(156.06,242.00) scale(0.01600,-0.01600)" d="M76 -200V493H177V422H193Q212 455 250.5 481.0Q289 507 361 507Q423 507 474.5 477.0Q526 447 557.5 390.5Q589 334 589 254V239Q589 159 558.0 102.5Q527 46 475.0 16.0Q423 -14 361 -14Q313 -14 280.0 -2.0Q247 10 227.0 28.5Q207 47 195 67H179V-200ZM331 76Q399 76 442.0 119.0Q485 162 485 242V251Q485 330 441.5 373.0Q398 416 331 416Q265 416 221.5 373.0Q178 330 178 251V242Q178 162 221.5 119.0Q265 76 331 76Z"/>
<path transform="translate(166.51,242.00) scale(0.01600,-0.01600)" d="M302 -14Q227 -14 171.0 17.5Q115 49 83.5 106.5Q52 164 52 240V252Q52 329 83.0 386.5Q114 444 169.5 475.5Q225 507 298 507Q369 507 422.5 475.5Q476 444 506.0 388.0Q536 332 536 257V218H157Q159 153 200.5 114.5Q242 76 304 76Q362 76 391.5 102.0Q421 128 437 162L522 118Q508 90 481.5 59.0Q455 28 412.0 7.0Q369 -14 302 -14ZM158 297H431Q427 353 391.0 384.5Q355 416 297 416Q239 416 202.5 384.5Q166 353 158 297Z"/>
<path transform="translate(176.06,242.00) scale(0.01600,-0.01600)" d="M76 0V493H177V435H193Q205 466 231.5 480.5Q258 495 297 495H356V402H293Q243 402 211.0 374.5Q179 347 179 290V0Z"/>
<path transform="translate(182.45,242.00) scale(0.01600,-0.01600)" d="M76 0V493H179V0ZM128 560Q98 560 77.5 579.5Q57 599 57 630Q57 661 77.5 680.5Q98 700 128 700Q159 700 179.0 680.5Q199 661 199 630Q199 599 179.0 579.5Q159 560 128 560Z"/>
<path transform="translate(186.74,242.00) scale(0.01600,-0.01600)" d="M76 0V493H177V435H193Q207 461 238.0 481.0Q269 501 322 501Q377 501 410.5 478.5Q444 456 461 421H477Q494 455 526.5 478.0Q559 501 619 501Q667 501 704.0 481.5Q741 462 763.0 423.5Q785 385 785 328V0H682V320Q682 365 657.5 389.5Q633 414 588 414Q540 414 511.0 383.0Q482 352 482 294V0H379V320Q379 365 354.5 389.5Q330 414 285 414Q237 414 208.0 383.0Q179 352 179 294V0Z"/>
<path transform="translate(200.66,242.00) scale(0.01600,-0.01600)" d="M302 -14Q227 -14 171.0 17.5Q115 49 83.5 106.5Q52 164 52 240V252Q52 329 83.0 386.5Q114 444 169.5 475.5Q225 507 298 507Q369 507 422.5 475.5Q476 444 506.0 388.0Q536 332 536 257V218H157Q159 153 200.5 114.5Q242 76 304 76Q362 76 391.5 102.0Q421 128 437 162L522 118Q508 90 481.5 59.0Q455 28 412.0 7.0Q369 -14 302 -14ZM158 297H431Q427 353 391.0 384.5Q355 416 297 416Q239 416 202.5 384.5Q166 353 158 297Z"/>
<path transform="translate(210.20,242.00) scale(0.01600,-0.01600)" d="M76 0V493H177V419H193Q207 449 243.0 475.0Q279 501 350 501Q406 501 449.5 476.0Q493 451 518.0 405.5Q543 360 543 296V0H440V288Q440 352 408.0 382.5Q376 413 320 413Q256 413 217.5 371.0Q179 329 179 249V0Z"/>
<path transform="translate(220.24,242.00) scale(0.01600,-0.01600)" d="M261 0Q216 0 189.5 27.0Q163 54 163 99V406H27V493H163V656H266V493H413V406H266V117Q266 87 294 87H397V0Z"/>
<path transform="translate(232.05,242.00) scale(0.01600,-0.01600)" d="M278 -14Q184 -14 122.0 28.0Q60 70 46 155L142 178Q150 137 169.0 113.0Q188 89 216.5 79.0Q245 69 278 69Q327 69 353.5 88.0Q380 107 380 137Q380 167 355.0 181.0Q330 195 281 204L247 210Q197 219 156.0 236.0Q115 253 91.0 283.0Q67 313 67 360Q67 430 119.0 468.5Q171 507 257 507Q340 507 393.5 469.5Q447 432 463 368L367 341Q358 386 329.0 404.5Q300 423 257 423Q215 423 191.0 407.5Q167 392 167 364Q167 334 190.5 320.0Q214 306 254 299L289 293Q342 284 386.0 268.0Q430 252 455.5 222.0Q481 192 481 142Q481 68 426.0 27.0Q371 -14 278 -14Z"/>
<path transform="translate(240.65,242.00) scale(0.01600,-0.01600)" d="M261 0Q216 0 189.5 27.0Q163 54 163 99V406H27V493H163V656H266V493H413V406H266V117Q266 87 294 87H397V0Z"/>
<path transform="translate(248.18,242.00) scale(0.01600,-0.01600)" d="M229 -14Q176 -14 134.5 4.0Q93 22 68.5 57.0Q44 92 44 142Q44 193 68.5 226.5Q93 260 135.5 277.0Q178 294 232 294H382V326Q382 369 356.0 395.0Q330 421 276 421Q223 421 195.0 396.0Q167 371 158 331L62 362Q74 402 100.5 434.5Q127 467 171.0 487.0Q215 507 277 507Q373 507 428.0 458.0Q483 409 483 319V116Q483 86 511 86H553V0H476Q441 0 419.0 18.0Q397 36 397 67V70H382Q374 55 358.0 35.0Q342 15 311.0 0.5Q280 -14 229 -14ZM244 71Q306 71 344.0 106.5Q382 142 382 204V214H238Q197 214 172.0 196.5Q147 179 147 145Q147 111 173.0 91.0Q199 71 244 71Z"/>
<path transform="translate(257.61,242.00) scale(0.01600,-0.01600)" d="M76 0V493H177V435H193Q205 466 231.5 480.5Q258 495 297 495H356V402H293Q243 402 211.0 374.5Q179 347 179 290V0Z"/>
<path transform="translate(264.00,242.00) scale(0.01600,-0.01600)" d="M261 0Q216 0 189.5 27.0Q163 54 163 99V406H27V493H163V656H266V493H413V406H266V117Q266 87 294 87H397V0Z"/>
<path transform="translate(271.53,242.00) scale(0.01600,-0.01600)" d="M278 -14Q184 -14 122.0 28.0Q60 70 46 155L142 178Q150 137 169.0 113.0Q188 89 216.5 79.0Q245 69 278 69Q327 69 353.5 88.0Q380 107 380 137Q380 167 355.0 181.0Q330 195 281 204L247 210Q197 219 156.0 236.0Q115 253 91.0 283.0Q67 313 67 360Q67 430 119.0 468.5Q171 507 257 507Q340 507 393.5 469.5Q447 432 463 368L367 341Q358 386 329.0 404.5Q300 423 257 423Q215 423 191.0 407.5Q167 392 167 364Q167 334 190.5 320.0Q214 306 254 299L289 293Q342 284 386.0 268.0Q430 252 455.5 222.0Q481 192 481 142Q481 68 426.0 27.0Q371 -14 278 -14Z"/>
<path transform="translate(284.41,242.00) scale(0.01600,-0.01600)" d="M361 -14Q289 -14 250.5 12.0Q212 38 193 70H177V0H76V700H179V426H195Q207 446 227.0 464.5Q247 483 280.0 495.0Q313 507 361 507Q423 507 475.0 477.0Q527 447 558.0 390.0Q589 333 589 254V239Q589 159 557.5 102.5Q526 46 474.5 16.0Q423 -14 361 -14ZM331 76Q398 76 441.5 119.0Q485 162 485 242V251Q485 330 442.0 373.0Q399 416 331 416Q265 416 221.5 373.0Q178 330 178 251V242Q178 162 221.5 119.0Q265 76 331 76Z"/>
<path transform="translate(294.86,242.00) scale(0.01600,-0.01600)" d="M76 0V700H179V0Z"/>
<path transform="translate(299.16,242.00) scale(0.01600,-0.01600)" d="M76 0V493H179V0ZM128 560Q98 560 77.5 579.5Q57 599 57 630Q57 661 77.5 680.5Q98 700 128 700Q159 700 179.0 680.5Q199 661 199 630Q199 599 179.0 579.5Q159 560 128 560Z"/>
<path transform="translate(303.46,242.00) scale(0.01600,-0.01600)" d="M76 0V493H177V419H193Q207 449 243.0 475.0Q279 501 350 501Q406 501 449.5 476.0Q493 451 518.0 405.5Q543 360 543 296V0H440V288Q440 352 408.0 382.5Q376 413 320 413Q256 413 217.5 371.0Q179 329 179 249V0Z"/>
<path transform="translate(313.50,242.00) scale(0.01600,-0.01600)" d="M280 -14Q219 -14 167.0 16.0Q115 46 83.5 102.5Q52 159 52 239V254Q52 333 83.0 390.0Q114 447 166.0 477.0Q218 507 280 507Q328 507 360.5 495.0Q393 483 414.0 464.5Q435 446 446 426H462V700H565V0H464V70H448Q429 38 390.5 12.0Q352 -14 280 -14ZM309 76Q376 76 419.5 119.0Q463 162 463 242V251Q463 330 420.0 373.0Q377 416 309 416Q243 416 199.5 373.0Q156 330 156 251V242Q156 162 199.5 119.0Q243 76 309 76Z"/>
<path transform="translate(323.95,242.00) scale(0.01600,-0.01600)" d="M138 -14Q103 -14 79.5 9.0Q56 32 56 68Q56 104 79.5 126.5Q103 149 138 149Q173 149 196.5 126.0Q220 103 220 68Q220 32 196.5 9.0Q173 -14 138 -14Z"/></g></svg>